<?xml version="1.0" encoding="UTF-8"?>
<svg version="1.1" xmlns="http://www.w3.org/2000/svg" width="512" height="512">
<path d="M0 0 C3.13559567 2.29943683 5.6066492 4.67697798 8.125 7.625 C10.14127716 9.73462332 11.07976747 10.60948028 14 10.984375 C15.82257971 10.90843418 17.64432327 10.81050362 19.46484375 10.6953125 C31.82080059 10.66535867 43.24171005 15.68555161 52.18359375 24.01171875 C60.29297448 32.49394457 64.96223984 42.05305325 66.6875 53.6875 C66.59684715 55.75179487 66.4721778 57.8148946 66.3125 59.875 C66.19822146 63.53667479 66.26541371 65.11823889 68.46875 68.08984375 C70.04653746 69.58611219 71.65724471 71.04833108 73.296875 72.4765625 C82.15940145 80.67295134 85.29237355 92.78497092 85.875 104.4375 C85.60881274 116.01664581 82.36661409 127.99185283 74.00390625 136.37890625 C73.09511719 137.18199219 72.18632812 137.98507813 71.25 138.8125 C67.64294628 142.07718685 67.64294628 142.07718685 66.15625 146.546875 C66.21915373 148.5702782 66.33980739 150.59264359 66.515625 152.609375 C67.134648 163.69551422 61.53187901 174.62375307 54.5625 182.875 C46.26281339 191.64343967 35.78945523 197.5010338 23.6875 198.6875 C22.35912109 198.54054687 22.35912109 198.54054687 21.00390625 198.390625 C14.61795682 197.81372542 14.61795682 197.81372542 9.109375 200.69921875 C6.68029821 203.25300664 6.68029821 203.25300664 4.625 205.9140625 C1.6875 208.6875 1.6875 208.6875 -10.3125 214.6875 C-10.6425 236.1375 -10.9725 257.5875 -11.3125 279.6875 C73.1675 279.6875 157.6475 279.6875 244.6875 279.6875 C244.3575 258.2375 244.0275 236.7875 243.6875 214.6875 C239.7275 212.7075 235.7675 210.7275 231.6875 208.6875 C228.75 205.9140625 228.75 205.9140625 226.6875 203.3125 C223.35266915 199.67345001 223.35266915 199.67345001 218.8203125 198.15234375 C216.7995186 198.21795394 214.77984391 198.34002643 212.765625 198.515625 C201.67948578 199.134648 190.75124693 193.53187901 182.5 186.5625 C173.73156033 178.26281339 167.8739662 167.78945523 166.6875 155.6875 C166.83445312 154.35912109 166.83445312 154.35912109 166.984375 153.00390625 C167.57000657 146.65249688 167.57000657 146.65249688 164.7109375 141.1796875 C162.94542076 139.56351961 161.16467448 137.96387191 159.37109375 136.37890625 C152.12463038 129.11134692 148.54183024 118.77826852 147.6875 108.6875 C147.62949219 108.00429687 147.57148438 107.32109375 147.51171875 106.6171875 C147.00561416 93.45846814 151.6730695 81.83502928 160.4375 72.125 C161.19546875 71.33996094 161.9534375 70.55492188 162.734375 69.74609375 C165.80807924 66.57065804 165.80807924 66.57065804 166.77734375 62.41015625 C166.72707031 61.53230469 166.67679687 60.65445313 166.625 59.75 C166.40437801 45.81404424 171.8114527 33.92748052 181.30859375 23.9453125 C189.51630252 16.15540172 199.46470477 12.06081573 210.6875 10.6875 C212.4602451 10.83242515 214.23137388 10.99884655 216 11.1875 C219.5794683 11.23587119 221.16615538 11.08282423 224.046875 8.8984375 C225.53929895 7.31604473 227.00499707 5.70809051 228.4453125 4.078125 C236.31021674 -4.30745234 246.77452291 -7.34169232 257.91503906 -7.71508789 C271.54789327 -7.89486456 282.06628922 -5.27821558 292.6875 3.6875 C293.86838011 4.98722671 295.03607104 6.29911211 296.1875 7.625 C298.11833184 9.64542961 299.06438921 10.59172348 301.84765625 11.01953125 C303.5065357 10.96288659 305.16450745 10.87356787 306.8203125 10.7578125 C319.66308497 10.44286713 331.65651528 16.16710522 340.91015625 24.77734375 C348.55239946 32.99065568 353.53217984 43.5194051 354.6875 54.6875 C354.55368288 56.5425726 354.407664 58.39680183 354.25 60.25 C354.15985928 63.8055507 354.34205397 65.22937629 356.5078125 68.1015625 C358.09751924 69.62831056 359.71838564 71.12320732 361.3671875 72.5859375 C368.88253184 79.39276452 372.45713045 89.54088272 373.07421875 99.484375 C373.5696104 113.92189403 371.23813788 125.3931772 361.6875 136.6875 C360.38669005 137.84658747 359.07473973 138.99333975 357.75 140.125 C355.59084515 142.17883023 354.76469614 143.12533048 354.35546875 146.10546875 C354.41161505 147.95829656 354.50183123 149.81031848 354.62109375 151.66015625 C354.90485939 164.59653115 348.88914562 176.19103552 340.2109375 185.359375 C332.20560503 192.74509969 322.57946029 197.61966076 311.6875 198.6875 C310.7903125 198.60113281 309.893125 198.51476562 308.96875 198.42578125 C302.73277757 197.87278449 302.73277757 197.87278449 297.26171875 200.4765625 C295.77981833 202.05058817 294.33070693 203.65605783 292.9140625 205.2890625 C288.12023817 210.45293642 282.52335956 213.32032809 275.6875 214.6875 C275.6875 236.1375 275.6875 257.5875 275.6875 279.6875 C307.6975 279.6875 339.7075 279.6875 372.6875 279.6875 C372.6875 353.9375 372.6875 428.1875 372.6875 504.6875 C203.7275 504.6875 34.7675 504.6875 -139.3125 504.6875 C-139.3125 430.4375 -139.3125 356.1875 -139.3125 279.6875 C-107.3025 279.6875 -75.2925 279.6875 -42.3125 279.6875 C-42.3125 258.2375 -42.3125 236.7875 -42.3125 214.6875 C-45.2825 213.6975 -48.2525 212.7075 -51.3125 211.6875 C-53.9140625 210.07421875 -53.9140625 210.07421875 -55.9375 208.375 C-56.68515625 207.76914063 -57.4328125 207.16328125 -58.203125 206.5390625 C-60.3125 204.6875 -60.3125 204.6875 -62.046875 202.8984375 C-64.54178578 200.3916462 -66.16791807 198.81123859 -69.76953125 198.421875 C-71.63108591 198.47513837 -73.49203547 198.55435811 -75.3515625 198.65625 C-87.92176356 198.78891703 -99.19736032 192.49336173 -108.0546875 184.06640625 C-115.84459828 175.85869748 -119.93918427 165.91029523 -121.3125 154.6875 C-121.16757485 152.9147549 -121.00115345 151.14362612 -120.8125 149.375 C-120.76412881 145.7955317 -120.91717577 144.20884462 -123.1015625 141.328125 C-124.68395527 139.83570105 -126.29190949 138.37000293 -127.921875 136.9296875 C-136.26683761 129.10287616 -139.32144831 118.65048485 -139.76586914 107.5612793 C-140.01258889 93.6790952 -137.17978507 82.0308383 -127.3125 71.6875 C-126.16743096 70.72825357 -125.02165564 69.76984928 -123.875 68.8125 C-121.9057679 66.92100074 -121.35671929 66.07962106 -121.046875 63.33203125 C-121.10063511 61.46924355 -121.17886692 59.60705331 -121.27734375 57.74609375 C-121.42132328 45.21987477 -115.62612983 33.49626921 -107.22265625 24.46484375 C-98.60738422 16.44858859 -87.97639448 11.82584331 -76.3125 10.6875 C-74.60294347 10.81821572 -72.89443008 10.9635694 -71.1875 11.125 C-67.83728885 11.22041741 -66.65421037 10.95289506 -63.96875 8.8671875 C-62.43375296 7.27436523 -60.92731136 5.65357704 -59.44921875 4.0078125 C-44.86336742 -11.83130211 -16.90030108 -11.21634332 0 0 Z " fill="#FEDB74" transform="translate(139.3125,7.3125)"/>
<path d="M0 0 C3.13559567 2.29943683 5.6066492 4.67697798 8.125 7.625 C10.14127716 9.73462332 11.07976747 10.60948028 14 10.984375 C15.82257971 10.90843418 17.64432327 10.81050362 19.46484375 10.6953125 C31.82080059 10.66535867 43.24171005 15.68555161 52.18359375 24.01171875 C60.29297448 32.49394457 64.96223984 42.05305325 66.6875 53.6875 C66.59684715 55.75179487 66.4721778 57.8148946 66.3125 59.875 C66.19822146 63.53667479 66.26541371 65.11823889 68.46875 68.08984375 C70.04653746 69.58611219 71.65724471 71.04833108 73.296875 72.4765625 C82.15940145 80.67295134 85.29237355 92.78497092 85.875 104.4375 C85.60881274 116.01664581 82.36661409 127.99185283 74.00390625 136.37890625 C73.09511719 137.18199219 72.18632812 137.98507813 71.25 138.8125 C67.64294628 142.07718685 67.64294628 142.07718685 66.15625 146.546875 C66.21915373 148.5702782 66.33980739 150.59264359 66.515625 152.609375 C67.134648 163.69551422 61.53187901 174.62375307 54.5625 182.875 C46.26281339 191.64343967 35.78945523 197.5010338 23.6875 198.6875 C22.35912109 198.54054687 22.35912109 198.54054687 21.00390625 198.390625 C14.61795682 197.81372542 14.61795682 197.81372542 9.109375 200.69921875 C6.68029821 203.25300664 6.68029821 203.25300664 4.625 205.9140625 C1.6875 208.6875 1.6875 208.6875 -10.3125 214.6875 C-10.6425 236.1375 -10.9725 257.5875 -11.3125 279.6875 C46.7675 279.6875 104.8475 279.6875 164.6875 279.6875 C164.6875 280.0175 164.6875 280.3475 164.6875 280.6875 C163.67171875 280.83445312 162.6559375 280.98140625 161.609375 281.1328125 C147.02275723 283.43259262 134.99784879 288.28850586 126 300.4375 C120.91153367 308.00730834 117.7440613 315.94098843 117.44873047 325.06762695 C116.89312984 340.57109224 112.31212905 353.62119016 100.9375 364.5625 C95.9797614 368.78715835 90.7736062 371.44572419 84.6875 373.6875 C83.39917047 374.2051508 83.39917047 374.2051508 82.08481407 374.7332592 C77.85518196 375.92128228 74.05890974 375.95864733 69.68984985 375.92800903 C68.34683841 375.93057231 68.34683841 375.93057231 66.97669542 375.93318737 C63.98259131 375.93647635 60.9887123 375.92548824 57.99462891 375.91455078 C55.84598801 375.91398654 53.69734673 375.91430348 51.54870605 375.91543579 C45.718635 375.9160098 39.88864617 375.90424762 34.05859423 375.89028788 C27.96471606 375.87778859 21.87083603 375.87661065 15.77694702 375.87423706 C4.2386065 375.86801994 -7.29969613 375.85160595 -18.83801997 375.83153808 C-34.43068081 375.80500721 -50.02335201 375.79420831 -65.61602974 375.78253365 C-90.1815482 375.76372556 -114.74698672 375.72388138 -139.3125 375.6875 C-139.3125 344.0075 -139.3125 312.3275 -139.3125 279.6875 C-107.3025 279.6875 -75.2925 279.6875 -42.3125 279.6875 C-42.3125 258.2375 -42.3125 236.7875 -42.3125 214.6875 C-45.2825 213.6975 -48.2525 212.7075 -51.3125 211.6875 C-53.9140625 210.07421875 -53.9140625 210.07421875 -55.9375 208.375 C-56.68515625 207.76914063 -57.4328125 207.16328125 -58.203125 206.5390625 C-60.3125 204.6875 -60.3125 204.6875 -62.046875 202.8984375 C-64.54178578 200.3916462 -66.16791807 198.81123859 -69.76953125 198.421875 C-71.63108591 198.47513837 -73.49203547 198.55435811 -75.3515625 198.65625 C-87.92176356 198.78891703 -99.19736032 192.49336173 -108.0546875 184.06640625 C-115.84459828 175.85869748 -119.93918427 165.91029523 -121.3125 154.6875 C-121.16757485 152.9147549 -121.00115345 151.14362612 -120.8125 149.375 C-120.76412881 145.7955317 -120.91717577 144.20884462 -123.1015625 141.328125 C-124.68395527 139.83570105 -126.29190949 138.37000293 -127.921875 136.9296875 C-136.26683761 129.10287616 -139.32144831 118.65048485 -139.76586914 107.5612793 C-140.01258889 93.6790952 -137.17978507 82.0308383 -127.3125 71.6875 C-126.16743096 70.72825357 -125.02165564 69.76984928 -123.875 68.8125 C-121.9057679 66.92100074 -121.35671929 66.07962106 -121.046875 63.33203125 C-121.10063511 61.46924355 -121.17886692 59.60705331 -121.27734375 57.74609375 C-121.42132328 45.21987477 -115.62612983 33.49626921 -107.22265625 24.46484375 C-98.60738422 16.44858859 -87.97639448 11.82584331 -76.3125 10.6875 C-74.60294347 10.81821572 -72.89443008 10.9635694 -71.1875 11.125 C-67.83728885 11.22041741 -66.65421037 10.95289506 -63.96875 8.8671875 C-62.43375296 7.27436523 -60.92731136 5.65357704 -59.44921875 4.0078125 C-44.86336742 -11.83130211 -16.90030108 -11.21634332 0 0 Z " fill="#8ACC5D" transform="translate(139.3125,7.3125)"/>
<path d="M0 0 C0 74.25 0 148.5 0 225 C-82.17 225 -164.34 225 -249 225 C-249 224.67 -249 224.34 -249 224 C-247.99582031 223.84144531 -246.99164063 223.68289063 -245.95703125 223.51953125 C-224.05226561 219.86694121 -204.52453069 210.32078328 -191.125 192.125 C-178.02909211 171.89475423 -175.71172284 152.85285654 -175.72560501 129.21978378 C-175.72657965 125.55267377 -175.71351958 121.88584937 -175.69662476 118.21878052 C-175.65062237 107.80163719 -175.62574156 97.38452679 -175.61914062 86.96728516 C-175.61411353 80.57199912 -175.58981233 74.17701667 -175.55381393 67.78183365 C-175.54405363 65.3571162 -175.54166325 62.93235683 -175.54698563 60.50762558 C-175.55409288 57.11266515 -175.53670069 53.71860584 -175.51416016 50.32373047 C-175.52641884 48.84276382 -175.52641884 48.84276382 -175.53892517 47.33187866 C-175.39368087 34.96229296 -170.20040557 23.89198926 -161.96875 14.7421875 C-126.20563657 -19.33643146 -31.78692324 0 0 0 Z " fill="#48A663" transform="translate(512,287)"/>
<path d="M0 0 C2.14288984 1.80888424 3.8952554 3.70703652 5.73046875 5.8203125 C7.66130059 7.84074211 8.60735796 8.78703598 11.390625 9.21484375 C13.04950445 9.15819909 14.7074762 9.06888037 16.36328125 8.953125 C29.20605372 8.63817963 41.19948403 14.36241772 50.453125 22.97265625 C58.09536821 31.18596818 63.07514859 41.7147176 64.23046875 52.8828125 C64.09665163 54.7378851 63.95063275 56.59211433 63.79296875 58.4453125 C63.70282803 62.0008632 63.88502272 63.42468879 66.05078125 66.296875 C67.64048799 67.82362306 69.26135439 69.31851982 70.91015625 70.78125 C78.42550059 77.58807702 82.0000992 87.73619522 82.6171875 97.6796875 C83.11257915 112.11720653 80.78110663 123.5884897 71.23046875 134.8828125 C69.9296588 136.04189997 68.61770848 137.18865225 67.29296875 138.3203125 C65.1338139 140.37414273 64.30766489 141.32064298 63.8984375 144.30078125 C63.9545838 146.15360906 64.04479998 148.00563098 64.1640625 149.85546875 C64.44782814 162.79184365 58.43211437 174.38634802 49.75390625 183.5546875 C41.74857378 190.94041219 32.12242904 195.81497326 21.23046875 196.8828125 C19.8846875 196.75326172 19.8846875 196.75326172 18.51171875 196.62109375 C12.27574632 196.06809699 12.27574632 196.06809699 6.8046875 198.671875 C5.31606987 200.25303547 3.85554249 201.86103808 2.421875 203.4921875 C-5.49458148 212.12832184 -16.28401321 214.25514484 -27.54296875 215.19921875 C-39.84843731 215.5924863 -51.23661791 212.98578884 -60.76953125 204.8828125 C-62.04813287 203.43128525 -63.31890774 201.9728287 -64.58203125 200.5078125 C-66.95206004 198.02514868 -68.0886169 196.98257662 -71.515625 196.48046875 C-73.55233862 196.54138476 -75.58816547 196.64299039 -77.62109375 196.78125 C-88.82108693 197.1425401 -99.58714254 191.82740175 -107.95703125 184.7578125 C-116.72547092 176.45812589 -122.58306505 165.98476773 -123.76953125 153.8828125 C-123.6715625 152.99722656 -123.57359375 152.11164063 -123.47265625 151.19921875 C-122.88702468 144.84780938 -122.88702468 144.84780938 -125.74609375 139.375 C-127.51161049 137.75883211 -129.29235677 136.15918441 -131.0859375 134.57421875 C-138.33240087 127.30665942 -141.91520101 116.97358102 -142.76953125 106.8828125 C-142.82753906 106.19960937 -142.88554687 105.51640625 -142.9453125 104.8125 C-143.45141709 91.65378064 -138.78396175 80.03034178 -130.01953125 70.3203125 C-129.2615625 69.53527344 -128.50359375 68.75023438 -127.72265625 67.94140625 C-124.64895201 64.76597054 -124.64895201 64.76597054 -123.6796875 60.60546875 C-123.72996094 59.72761719 -123.78023438 58.84976563 -123.83203125 57.9453125 C-124.05265324 44.00935674 -118.64557855 32.12279302 -109.1484375 22.140625 C-100.94072873 14.35071422 -90.99232648 10.25612823 -79.76953125 8.8828125 C-77.99678615 9.02773765 -76.22565737 9.19415905 -74.45703125 9.3828125 C-70.87756295 9.43118369 -69.29087587 9.27813673 -66.41015625 7.09375 C-64.9177323 5.51135723 -63.45203418 3.90340301 -62.01171875 2.2734375 C-46.23030914 -14.55273441 -17.37865652 -12.7646094 0 0 Z " fill="#4EC250" transform="translate(429.76953125,9.1171875)"/>
<path d="M0 0 C100.32 0 200.64 0 304 0 C304 0.33 304 0.66 304 1 C302.98421875 1.14695312 301.9684375 1.29390625 300.921875 1.4453125 C286.33525723 3.74509262 274.31034879 8.60100586 265.3125 20.75 C260.22403367 28.31980834 257.0565613 36.25348843 256.76123047 45.38012695 C256.20562984 60.88359224 251.62462905 73.93369016 240.25 84.875 C235.2922614 89.09965835 230.0861062 91.75822419 224 94 C222.71167047 94.5176508 222.71167047 94.5176508 221.39731407 95.0457592 C217.16768196 96.23378228 213.37140974 96.27114733 209.00234985 96.24050903 C207.65933841 96.24307231 207.65933841 96.24307231 206.28919542 96.24568737 C203.29509131 96.24897635 200.3012123 96.23798824 197.30712891 96.22705078 C195.15848801 96.22648654 193.00984673 96.22680348 190.86120605 96.22793579 C185.031135 96.2285098 179.20114617 96.21674762 173.37109423 96.20278788 C167.27721606 96.19028859 161.18333603 96.18911065 155.08944702 96.18673706 C143.5511065 96.18051994 132.01280387 96.16410595 120.47448003 96.14403808 C104.88181919 96.11750721 89.28914799 96.10670831 73.69647026 96.09503365 C49.1309518 96.07622556 24.56551328 96.03638138 0 96 C0 64.32 0 32.64 0 0 Z " fill="#4EC251" transform="translate(0,287)"/>
<path d="M0 0 C2.31 0.33 4.62 0.66 7 1 C9.45705897 1.08944326 11.91631899 1.13015447 14.375 1.125 C16.21191406 1.12886719 16.21191406 1.12886719 18.0859375 1.1328125 C22.40466929 0.98626871 26.70521236 0.47719863 31 0 C31 21.78 31 43.56 31 66 C13.625 66.375 13.625 66.375 8.20556641 66.47802734 C-7.81747794 66.83868631 -21.7032777 69.00227892 -33.89453125 80.52734375 C-42.63056245 90.78691286 -46.30013298 101.58354977 -46.28710938 114.86962891 C-46.29394241 115.94216919 -46.30077545 117.01470947 -46.30781555 118.11975098 C-46.32136947 120.44138124 -46.33044459 122.76304108 -46.33552551 125.08470535 C-46.34384512 128.7686819 -46.36438142 132.45241418 -46.38806152 136.13632202 C-46.43621831 143.96584484 -46.46916627 151.79539233 -46.5 159.625 C-46.53577126 168.68167088 -46.57790195 177.73822287 -46.63594055 186.79478073 C-46.65586469 190.40671174 -46.66430088 194.01854946 -46.67224121 197.63052368 C-46.79786423 224.82497402 -46.79786423 224.82497402 -51.75 237.1875 C-52.01312988 237.86184082 -52.27625977 238.53618164 -52.54736328 239.23095703 C-60.29439506 258.4947198 -75.11321543 274.32242257 -94 283 C-104.96734719 287.59565219 -116.11503871 290.05844777 -128 290 C-128.09356531 266.08628355 -128.16403897 242.17259466 -128.20724869 218.25873184 C-128.22784765 207.15435913 -128.25591725 196.05010035 -128.30175781 184.94580078 C-128.34170722 175.26391927 -128.36745218 165.5821203 -128.37635398 155.90015864 C-128.381555 150.77667057 -128.39372362 145.65341859 -128.42292023 140.53000641 C-128.45021745 135.70043672 -128.45841623 130.87119874 -128.45243073 126.04155922 C-128.45352459 124.2759934 -128.4613928 122.51041565 -128.4768219 120.74491692 C-128.59411756 106.6217408 -126.74976966 95.57073365 -118 84 C-117.38125 83.113125 -116.7625 82.22625 -116.125 81.3125 C-105.4870827 69.73594294 -90.81454398 65.39615058 -75.48583984 64.74087524 C-70.63581695 64.62086036 -65.78827417 64.66104849 -60.9375 64.70703125 C-59.16675175 64.71264426 -57.39599876 64.71690626 -55.62524414 64.71989441 C-51.02216138 64.73120923 -46.41937425 64.76055688 -41.81640625 64.79400635 C-36.26279812 64.83047356 -30.70908973 64.84393219 -25.15539551 64.86136627 C-16.77005968 64.89020578 -8.38536919 64.94778483 0 65 C0 43.55 0 22.1 0 0 Z " fill="#FEC262" transform="translate(384,222)"/>
<path d="M0 0 C2.97 0.495 2.97 0.495 6 1 C8.61601097 1.09217033 11.19811756 1.14003959 13.8125 1.125 C14.47314453 1.12886719 15.13378906 1.13273438 15.81445312 1.13671875 C19.49967816 1.12958375 23.09860743 0.91640683 26.76049805 0.49169922 C27.55820114 0.40008514 28.35590424 0.30847107 29.17778015 0.21408081 C30.07977898 0.10811081 30.07977898 0.10811081 31 0 C31.02312659 8.45767334 31.0409167 16.91533356 31.05181217 25.37303066 C31.05704031 29.29988658 31.06413669 33.22672094 31.07543945 37.15356445 C31.0862708 40.94014257 31.09227736 44.7266999 31.09487724 48.51329231 C31.09673105 49.96104319 31.10035081 51.40879288 31.10573006 52.85653496 C31.11294367 54.87757135 31.11340808 56.89862848 31.11352539 58.91967773 C31.115746 60.07217514 31.11796661 61.22467255 31.12025452 62.41209412 C31 65 31 65 30 66 C20.1 66 10.2 66 0 66 C0 44.22 0 22.44 0 0 Z " fill="#E15D48" transform="translate(97,222)"/>
<path d="M0 0 C1.07975098 0.16226074 2.15950195 0.32452148 3.27197266 0.49169922 C7.02353711 1.00320918 10.59085309 1.13293322 14.375 1.125 C16.21191406 1.12886719 16.21191406 1.12886719 18.0859375 1.1328125 C22.40466929 0.98626871 26.70521236 0.47719863 31 0 C31 21.78 31 43.56 31 66 C21.1 66 11.2 66 1 66 C0 65 0 65 -0.12025452 62.41209412 C-0.11803391 61.25959671 -0.11581329 60.1070993 -0.11352539 58.91967773 C-0.11344986 57.61840439 -0.11337433 56.31713104 -0.11329651 54.97642517 C-0.10818909 53.54548098 -0.10297308 52.11453718 -0.09765625 50.68359375 C-0.09579203 49.2277074 -0.09436815 47.77182043 -0.09336853 46.31593323 C-0.08954365 42.47720621 -0.07971364 38.63851681 -0.06866455 34.79980469 C-0.05844978 30.88542184 -0.05387077 26.97103294 -0.04882812 23.05664062 C-0.03809134 15.37107657 -0.02101529 7.68554355 0 0 Z " fill="#C34E46" transform="translate(384,222)"/>
<path d="M0 0 C9.9 0 19.8 0 30 0 C30 9.9 30 19.8 30 30 C20.1 30 10.2 30 0 30 C0 20.1 0 10.2 0 0 Z " fill="#43916E" transform="translate(433,433)"/>
<path d="M0 0 C9.9 0 19.8 0 30 0 C30 9.9 30 19.8 30 30 C25.235625 30.020625 20.47125 30.04125 15.5625 30.0625 C14.0576001 30.071604 12.5527002 30.08070801 11.00219727 30.09008789 C9.82713623 30.09258545 8.6520752 30.09508301 7.44140625 30.09765625 C6.23170166 30.10289307 5.02199707 30.10812988 3.77563477 30.11352539 C1 30 1 30 0 29 C-0.08775605 26.85441173 -0.10695219 24.70595579 -0.09765625 22.55859375 C-0.09515869 21.38353271 -0.09266113 20.20847168 -0.09008789 18.99780273 C-0.08098389 17.49290283 -0.07187988 15.98800293 -0.0625 14.4375 C-0.041875 9.673125 -0.02125 4.90875 0 0 Z " fill="#43916E" transform="translate(385,370)"/>
<path d="M0 0 C15.84 0 31.68 0 48 0 C48 0.33 48 0.66 48 1 C46.47632813 1.22042969 46.47632813 1.22042969 44.921875 1.4453125 C30.33525723 3.74509262 18.31034879 8.60100586 9.3125 20.75 C6.51169627 24.90724679 4.51915313 29.0644343 2.82421875 33.7734375 C2 36 2 36 0 40 C0 26.8 0 13.6 0 0 Z " fill="#4AA762" transform="translate(256,287)"/>
</svg>
